<svg width="20" height="20" viewBox="0 0 20 20" fill="none" xmlns="http://www.w3.org/2000/svg">
<path fill-rule="evenodd" clip-rule="evenodd" d="M6.41277 11.1592C5.87547 11.1592 5.43896 10.7227 5.43896 10.1854C5.43896 9.64964 5.87547 9.21313 6.41277 9.21313C6.95008 9.21313 7.38658 9.64964 7.38658 10.1854C7.38658 10.7227 6.95008 11.1592 6.41277 11.1592ZM10.1985 11.1592C9.66117 11.1592 9.22466 10.7227 9.22466 10.1854C9.22466 9.64964 9.66117 9.21313 10.1985 9.21313C10.7358 9.21313 11.1723 9.64964 11.1723 10.1854C11.1723 10.7227 10.7358 11.1592 10.1985 11.1592ZM13.0105 10.1854C13.0105 10.7227 13.447 11.1592 13.9843 11.1592C14.5216 11.1592 14.9581 10.7227 14.9581 10.1854C14.9581 9.64964 14.5216 9.21313 13.9843 9.21313C13.447 9.21313 13.0105 9.64964 13.0105 10.1854Z" fill="url(#paint0_linear_3_584)"/>
<path fill-rule="evenodd" clip-rule="evenodd" d="M10.0165 1.66675C5.17484 1.66675 1.6665 5.62185 1.6665 10.0126C1.6665 11.4147 2.07484 12.8577 2.7915 14.1763C2.92484 14.3942 2.9415 14.6688 2.84984 14.9283L2.2915 16.7978C2.1665 17.2485 2.54984 17.5815 2.97484 17.4479L4.65817 16.948C5.1165 16.7978 5.47484 16.9889 5.89984 17.2485C7.1165 17.9654 8.63317 18.3334 9.99984 18.3334C14.1332 18.3334 18.3332 15.137 18.3332 9.98756C18.3332 5.54674 14.7498 1.66675 10.0165 1.66675Z" stroke="url(#paint1_linear_3_584)" stroke-width="1.5" stroke-linecap="round" stroke-linejoin="round"/>
<defs>
<linearGradient id="paint0_linear_3_584" x1="14.9581" y1="11.1592" x2="5.3444" y2="10.3801" gradientUnits="userSpaceOnUse">
<stop stop-color="#888BF4"/>
<stop offset="1" stop-color="#5151C6"/>
</linearGradient>
<linearGradient id="paint1_linear_3_584" x1="18.3332" y1="18.3334" x2="1.39503" y2="18.0528" gradientUnits="userSpaceOnUse">
<stop stop-color="#888BF4"/>
<stop offset="1" stop-color="#5151C6"/>
</linearGradient>
</defs>
</svg>
