<svg width="21" height="21" viewBox="0 0 21 21" fill="none" xmlns="http://www.w3.org/2000/svg">
<path fill-rule="evenodd" clip-rule="evenodd" d="M10.2746 4.41594C15.2546 4.26011 18.1913 8.90511 18.723 9.83177C18.8696 10.0884 18.8696 10.4043 18.723 10.6609C18.0113 11.9018 15.3313 15.9593 10.7255 16.0768C10.6571 16.0784 10.5888 16.0793 10.5205 16.0793C5.63463 16.0793 2.8013 11.5751 2.27713 10.6609C2.12963 10.4043 2.12963 10.0884 2.27713 9.83177C2.9888 8.59094 5.66796 4.53261 10.2746 4.41594ZM10.683 14.4109C7.09463 14.4943 4.7538 11.4251 3.97713 10.2426C4.83213 8.90511 6.98546 6.16677 10.3171 6.08177C13.8913 5.99094 16.2455 9.06761 17.0221 10.2501C16.168 11.5876 14.0138 14.3259 10.683 14.4109ZM7.58321 10.2463C7.58321 8.63794 8.89155 7.32961 10.4999 7.32961C12.1082 7.32961 13.4165 8.63794 13.4165 10.2463C13.4165 11.8546 12.1082 13.1629 10.4999 13.1629C8.89155 13.1629 7.58321 11.8546 7.58321 10.2463ZM9.24988 10.2463C9.24988 10.9354 9.81071 11.4963 10.4999 11.4963C11.189 11.4963 11.7499 10.9354 11.7499 10.2463C11.7499 9.55711 11.189 8.99627 10.4999 8.99627C9.81071 8.99627 9.24988 9.55711 9.24988 10.2463Z" fill="url(#paint0_linear_152_2439)"/>
<mask id="mask0_152_2439" style="mask-type:luminance" maskUnits="userSpaceOnUse" x="2" y="4" width="17" height="13">
<path fill-rule="evenodd" clip-rule="evenodd" d="M10.2746 4.41594C15.2546 4.26011 18.1913 8.90511 18.723 9.83177C18.8696 10.0884 18.8696 10.4043 18.723 10.6609C18.0113 11.9018 15.3313 15.9593 10.7255 16.0768C10.6571 16.0784 10.5888 16.0793 10.5205 16.0793C5.63463 16.0793 2.8013 11.5751 2.27713 10.6609C2.12963 10.4043 2.12963 10.0884 2.27713 9.83177C2.9888 8.59094 5.66796 4.53261 10.2746 4.41594ZM10.683 14.4109C7.09463 14.4943 4.7538 11.4251 3.97713 10.2426C4.83213 8.90511 6.98546 6.16677 10.3171 6.08177C13.8913 5.99094 16.2455 9.06761 17.0221 10.2501C16.168 11.5876 14.0138 14.3259 10.683 14.4109ZM7.58321 10.2463C7.58321 8.63794 8.89155 7.32961 10.4999 7.32961C12.1082 7.32961 13.4165 8.63794 13.4165 10.2463C13.4165 11.8546 12.1082 13.1629 10.4999 13.1629C8.89155 13.1629 7.58321 11.8546 7.58321 10.2463ZM9.24988 10.2463C9.24988 10.9354 9.81071 11.4963 10.4999 11.4963C11.189 11.4963 11.7499 10.9354 11.7499 10.2463C11.7499 9.55711 11.189 8.99627 10.4999 8.99627C9.81071 8.99627 9.24988 9.55711 9.24988 10.2463Z" fill="white"/>
</mask>
<g mask="url(#mask0_152_2439)">
</g>
<defs>
<linearGradient id="paint0_linear_152_2439" x1="18.833" y1="16.0793" x2="1.89986" y2="15.6785" gradientUnits="userSpaceOnUse">
<stop stop-color="#888BF4"/>
<stop offset="1" stop-color="#5151C6"/>
</linearGradient>
</defs>
</svg>
