<svg width="24" height="24" viewBox="0 0 24 24" fill="none" xmlns="http://www.w3.org/2000/svg">
<path d="M20.1194 5.08525C19.6503 4.61438 19.0932 4.24086 18.4802 3.98602C17.8671 3.73117 17.21 3.60001 16.5463 3.60001C15.8827 3.60001 15.2256 3.73117 14.6125 3.98602C13.9995 4.24086 13.4424 4.61438 12.9733 5.08525L11.9997 6.062L11.026 5.08525C10.0784 4.13458 8.79312 3.6005 7.45297 3.6005C6.11281 3.6005 4.82754 4.13458 3.87991 5.08525C2.93228 6.03592 2.3999 7.3253 2.3999 8.66975C2.3999 10.0142 2.93228 11.3036 3.87991 12.2543L4.85354 13.231L11.9997 20.4L19.1458 13.231L20.1194 12.2543C20.5888 11.7836 20.9611 11.2248 21.2151 10.6098C21.4692 9.99472 21.5999 9.3355 21.5999 8.66975C21.5999 8.004 21.4692 7.34478 21.2151 6.72974C20.9611 6.1147 20.5888 5.55589 20.1194 5.08525V5.08525Z" stroke="#242424" stroke-width="1.5" stroke-linecap="round" stroke-linejoin="round"/>
</svg>
