<svg width="20" height="20" viewBox="0 0 20 20" fill="none" xmlns="http://www.w3.org/2000/svg">
<path fill-rule="evenodd" clip-rule="evenodd" d="M1.68457 10.5574C1.68457 8.57475 3.24618 6.95649 5.20643 6.86563L5.3804 6.86161H6.1579C6.50308 6.86161 6.7829 7.14143 6.7829 7.48661C6.7829 7.80302 6.54778 8.06452 6.24271 8.1059L6.1579 8.11161H5.3804C4.07799 8.11161 3.01312 9.12996 2.93872 10.4137L2.93457 10.5574L2.93457 14.6199C2.93457 15.9217 3.95301 16.9864 5.23672 17.0608L5.3804 17.0649H14.6554C15.9577 17.0649 17.0227 16.0467 17.0971 14.7636L17.1012 14.6199V10.5491C17.1012 9.25131 16.0866 8.18991 14.8077 8.11575L14.6646 8.11161H13.8787C13.5336 8.11161 13.2537 7.83179 13.2537 7.48661C13.2537 7.1702 13.4889 6.9087 13.7939 6.86732L13.8787 6.86161H14.6646C16.6406 6.86161 18.2538 8.41728 18.347 10.3705L18.3512 10.5491V14.6199C18.3512 16.602 16.7895 18.2201 14.8294 18.3109L14.6554 18.3149H5.3804C3.39786 18.3149 1.77946 16.7535 1.68859 14.7939L1.68457 14.6199L1.68457 10.5574ZM9.5656 1.39392C9.67942 1.27466 9.83993 1.20036 10.0178 1.20036C10.1968 1.20036 10.3582 1.27558 10.4721 1.39613L12.8906 3.82458C13.1342 4.06915 13.1334 4.46488 12.8888 4.70846C12.6664 4.92989 12.3192 4.94935 12.0749 4.7673L12.0049 4.70664L10.6428 3.33989L10.6428 11.8595C10.6428 12.2047 10.363 12.4845 10.0178 12.4845C9.70139 12.4845 9.43989 12.2494 9.39851 11.9443L9.3928 11.8595V3.33855L8.03151 4.70657C7.81011 4.92895 7.46294 4.94989 7.21786 4.76889L7.14763 4.70853C6.92524 4.48714 6.9043 4.13996 7.0853 3.89488L7.14566 3.82465L9.5656 1.39392Z" fill="#242424"/>
</svg>
